<?xml version="1.0" encoding="utf-8"?>
<!-- Generator: Adobe Illustrator 24.2.3, SVG Export Plug-In . SVG Version: 6.00 Build 0)  -->
<svg version="1.1" id="圖層_1" xmlns="http://www.w3.org/2000/svg" xmlns:xlink="http://www.w3.org/1999/xlink" x="0px" y="0px"
	 viewBox="0 0 258 80" style="enable-background:new 0 0 258 80;" xml:space="preserve">
<style type="text/css">
	.st0{fill:#33B0AC;}
	.st1{fill:#65BA6C;}
	.st2{fill:url(#SVGID_1_);}
	.st3{fill:url(#SVGID_2_);}
	.st4{fill:url(#SVGID_3_);}
	.st5{fill:url(#SVGID_4_);}
	.st6{fill:url(#SVGID_5_);}
	.st7{fill:url(#SVGID_6_);}
	.st8{fill:url(#SVGID_7_);}
	.st9{fill:url(#SVGID_8_);}
	.st10{fill:url(#SVGID_9_);}
	.st11{fill:url(#SVGID_10_);}
	.st12{fill:url(#SVGID_11_);}
	.st13{fill:url(#SVGID_12_);}
	.st14{fill:url(#SVGID_13_);}
	.st15{fill:url(#SVGID_14_);}
	.st16{fill:url(#SVGID_15_);}
	.st17{fill:url(#SVGID_16_);}
	.st18{fill:url(#SVGID_17_);}
	.st19{fill:url(#SVGID_18_);}
	.st20{fill:#33A89C;}
</style>
<g>
	<path class="st0" d="M93.4,26.9c-0.2,2.9-0.6,5.7-1.3,8.4L89.9,34c0.6-2,1-4.6,1.2-7.6L93.4,26.9z M93.4,20.3l-2.2,0.8
		c-0.4-2.7-0.8-4.7-1.2-5.9l2.2-0.8C92.8,16.4,93.2,18.4,93.4,20.3z M100,24.8h-3.1v14.6h-2.7V24.8H90v-2.7h4.2v-9.6h2.7v9.6h3.1
		V24.8z M100.6,15.3c-0.2,1.8-0.5,3.7-1,5.8l-2.1-0.7c0.4-1.6,0.7-3.5,0.9-5.7L100.6,15.3z M100.6,33.6l-2.4,0.8
		c0-2.5-0.2-5-0.6-7.3l2.2-0.6C100.3,29.5,100.6,31.9,100.6,33.6z M115.7,36.8c0,0.8-0.3,1.5-0.8,2c-0.6,0.6-1.9,0.8-4.1,0.7l-1-2.6
		l2.7,0c0.3,0,0.5-0.2,0.5-0.5v-1.7h-8.6c-0.5,2-1.2,3.7-2.1,5l-2-2c1.2-1.6,1.8-3.9,1.8-6.8v-5.7h13.7V36.8z M117,23.7h-16.2v-2.2
		h6.7v-1.6h-5.7v-2h5.7v-1.4h-6.3v-2.2h6.3v-1.7h2.7v1.7h6.3v2.2h-6.3v1.4h5.9v2h-5.9v1.6h6.8V23.7z M113,32.7V31h-8.3
		c0,0.6,0,1.1-0.1,1.6H113z M113,29v-1.5h-8.3V29H113z"/>
	<path class="st0" d="M147.2,20.2h-3.5v4.2c1.1-0.5,2.1-1,3-1.5l0.3,2.7c-0.9,0.5-2,1.1-3.3,1.8v9c0,1-0.2,1.8-0.7,2.4
		c-0.5,0.5-1.4,0.8-2.8,0.8c-0.6,0-1.3,0-1.9-0.1l-0.7-2.7h2.9c0.3,0,0.5-0.2,0.5-0.6v-7.4c-1,0.5-2.1,0.9-3.4,1.5l-0.7-2.7
		c1.5-0.6,2.9-1.1,4.1-1.7v-5.6H137v-2.6h3.9v-5h2.8v5h3.5V20.2z M163.8,16h-8.3c-0.7,2.9-1.6,5.4-2.6,7.6h9.6v15.9h-2.9v-1.7h-7.1
		v1.7h-2.8V29c-1.1,1.4-2.3,2.7-3.5,4l-1.7-2.3c4-3.8,6.8-8.7,8.2-14.7h-6.4v-2.7h17.5V16z M159.6,35.1v-8.9h-7.1v8.9H159.6z"/>
	<path class="st0" d="M210.6,38.7h-26.9V36h12.5v-6.8h-9.4v-2.7h9.4v-5.9h-6.9c-1.1,2-2.4,3.7-3.8,5.1l-2.1-2
		c2.8-2.9,4.7-6.4,5.7-10.6l2.8,0.7c-0.4,1.3-0.8,2.7-1.3,4.2h5.7v-5.4h2.8v5.4h11.1v2.7h-11.1v5.9h9.8v2.7h-9.8V36h11.5V38.7z"/>
	<path class="st0" d="M240.7,26.3c-1.2,0.5-2.2,1-3.2,1.4v9c0,0.9-0.2,1.6-0.7,2.1c-0.4,0.5-1.2,0.7-2.2,0.7c-1,0-1.9,0-2.6,0
		l-0.9-2.7c1.1,0,2,0.1,2.8,0.1c0.2,0,0.4-0.1,0.6-0.3c0.2-0.2,0.3-0.4,0.3-0.6v-7.2c-1.1,0.4-2.3,0.8-3.5,1.1l-0.7-2.5
		c1.9-0.6,3.4-1.1,4.3-1.4v-5.7h-3.9v-2.6h3.9v-5h2.7v5h2.8v2.6h-2.8v4.7c0.8-0.3,1.7-0.6,2.7-1.1L240.7,26.3z M258,37.5l-1.6,2.3
		c-2.9-1.3-5.3-2.7-7.2-4.3c-2.2,1.7-4.9,3.1-8,4.3l-1.5-2.5c3-1,5.5-2.2,7.5-3.7c-1.7-1.9-3.2-4.6-4.4-8h-1.1v-2.6h6.1v-4h-6.6
		v-2.6h6.6v-3.9h2.8v3.9h6.5v2.6h-6.5v4h5.7v2.6c-1.4,3.5-3.2,6.1-5.2,8C252.9,35.1,255.2,36.4,258,37.5z M253.4,25.7h-7.6
		c0.8,2.3,2,4.4,3.6,6.2C251,30.2,252.4,28.1,253.4,25.7z"/>
</g>
<g id="XMLID_53_">
	<rect id="XMLID_64_" x="5.8" y="36.8" class="st0" width="7.9" height="6.4"/>
	<g id="XMLID_54_">
		<g id="XMLID_56_">
			<g id="XMLID_60_">
				<path id="XMLID_63_" class="st1" d="M49.1,46.7c0.4-1.6-0.5-3-2.1-3.9c-0.9-0.5-2.3-1.3-3.9-2.1l0,0c-1.1-0.6-2.4-1.4-3.9-2.3
					c0,0,0,0,0,0l0,0c-0.9-0.5-2-1.1-3-1.6c0,0-7-3.7,3.2-8.4c0,0-9.1,1.7-10.3,6c-0.4,1.6,0.5,3,2.1,3.9c1,0.5,2.4,1.3,3.9,2.2
					c0.9,0.5,2,1.2,3.2,1.9c0.1,0.1,0.2,0.1,0.3,0.2l0,0c1,0.6,2.1,1.2,3.3,1.8c0,0,7,3.7-3.2,8.4C38.9,52.7,48,51,49.1,46.7z"/>
				<path id="XMLID_62_" class="st1" d="M53.2,37.9c0,0,5.2-9.6-12.2-9.5c0,0,6.2,0.7,7.2,3.4c0,0-6.2-2.6-8.1-2.2
					c0,0-0.1,4.4,8.1,5.5C52.3,35.7,53.2,37.9,53.2,37.9z"/>
				<path id="XMLID_61_" class="st1" d="M39.6,0.3C18.7,0.3,1.6,16.4,0,36.8h5.8C7.3,20.6,20.2,7.7,36.4,6.2v5.1
					c-5.7,1.4-10,6.6-10,12.8v7c12.7-11.1,26.3-4.6,26.3-4.6V24c0-6.2-4.2-11.3-10-12.8V6.2C59,7.7,71.9,20.6,73.4,36.8h5.8
					C77.6,16.4,60.5,0.3,39.6,0.3z"/>
			</g>
			<g id="XMLID_57_">
				<path id="XMLID_59_" class="st0" d="M73.4,43.2C71.9,59.4,59,72.3,42.8,73.8v-5.1c5.7-1.4,10-6.6,10-12.8v-5.5
					c-12.5,10.9-26.3,3.2-26.3,3.2V56c0,6.2,4.2,11.3,10,12.8v5.1C20.2,72.3,7.3,59.4,5.8,43.2H0c1.6,20.5,18.7,36.6,39.6,36.6
					s38-16.1,39.6-36.6H73.4z"/>
				<path id="XMLID_58_" class="st0" d="M25.2,48.3c1.7,2.6,5.3,5,12.5,4.4c0,0-5.6-0.9-7.8-3.7c0,0,6.8,2.9,8.8,2.4
					c0,0-1.5-5.1-8.5-7.5c-0.6-0.2-1.2-0.4-1.7-0.5C26,42.9,23.6,45.9,25.2,48.3z"/>
			</g>
		</g>
		<rect id="XMLID_55_" x="65.6" y="36.8" class="st1" width="7.9" height="6.4"/>
	</g>
</g>
<g id="XMLID_41_">
	<rect id="XMLID_52_" x="5.8" y="36.9" class="st0" width="7.9" height="6.3"/>
	<g id="XMLID_42_">
		<g id="XMLID_44_">
			<g id="XMLID_48_">
				<path id="XMLID_51_" class="st1" d="M49.1,46.7c0.4-1.6-0.5-3-2.1-3.9c-0.9-0.5-2.3-1.3-3.9-2.1l0,0c-1.1-0.6-2.4-1.4-3.9-2.3
					c0,0,0,0,0,0l0,0c-0.9-0.5-2-1.1-3-1.6c0,0-7-3.7,3.2-8.3c0,0-9.1,1.7-10.2,6c-0.4,1.6,0.5,3,2.1,3.9c1,0.5,2.4,1.3,3.9,2.2
					c0.9,0.5,2,1.2,3.2,1.9c0.1,0.1,0.2,0.1,0.3,0.2l0,0c1,0.6,2.1,1.2,3.3,1.8c0,0,7,3.7-3.2,8.3C38.9,52.7,47.9,51,49.1,46.7z"/>
				<path id="XMLID_50_" class="st1" d="M53.1,38c0,0,5.1-9.6-12.2-9.5c0,0,6.2,0.7,7.2,3.4c0,0-6.2-2.6-8.1-2.2
					c0,0-0.1,4.3,8.1,5.5C52.3,35.7,53.1,38,53.1,38z"/>
				<path id="XMLID_49_" class="st1" d="M39.6,0.3C18.7,0.3,1.6,16.4,0,36.9h5.8C7.3,20.6,20.2,7.7,36.4,6.2v5.1
					c-5.7,1.4-10,6.6-10,12.7v7c12.7-11.1,26.3-4.6,26.3-4.6v-2.4c0-6.2-4.2-11.3-10-12.7V6.2C59,7.7,71.9,20.6,73.4,36.9h5.8
					C77.6,16.4,60.5,0.3,39.6,0.3z"/>
			</g>
			<g id="XMLID_45_">
				<path id="XMLID_47_" class="st0" d="M73.4,43.2C71.9,59.4,59,72.3,42.8,73.8v-5.1c5.7-1.4,10-6.6,10-12.7v-5.5
					c-12.5,10.9-26.3,3.2-26.3,3.2V56c0,6.2,4.2,11.3,10,12.7v5.1C20.2,72.3,7.3,59.4,5.8,43.2H0c1.6,20.5,18.7,36.5,39.6,36.5
					s38-16.1,39.6-36.5H73.4z"/>
				<path id="XMLID_46_" class="st0" d="M25.2,48.3c1.7,2.6,5.3,5,12.5,4.4c0,0-5.6-0.9-7.8-3.7c0,0,6.8,2.9,8.8,2.4
					c0,0-1.5-5.1-8.5-7.4c-0.6-0.2-1.2-0.4-1.7-0.5C26,42.9,23.6,45.9,25.2,48.3z"/>
			</g>
		</g>
		<rect id="XMLID_43_" x="65.5" y="36.9" class="st1" width="7.9" height="6.3"/>
	</g>
</g>
<g>
	<linearGradient id="SVGID_1_" gradientUnits="userSpaceOnUse" x1="118.0479" y1="59.2547" x2="248.9607" y2="59.2547">
		<stop  offset="0" style="stop-color:#67BA6D"/>
		<stop  offset="0.58" style="stop-color:#32B0AC"/>
	</linearGradient>
	<path class="st2" d="M106.3,62c-0.4,2.1-1.8,4.1-4.9,4.1c-3.9,0-5.4-3-5.4-6.9c0-3.5,1.7-6.7,5.5-6.7c3.1,0,4.6,1.9,4.8,4.1h-1.8
		c-0.3-1.5-1.1-2.6-3-2.6c-2.5,0-3.5,2.5-3.5,5.2c0,2.7,0.8,5.4,3.5,5.4c1.9,0,2.7-1.2,3.1-2.6H106.3z"/>
	<linearGradient id="SVGID_2_" gradientUnits="userSpaceOnUse" x1="118.0478" y1="60.9707" x2="248.9597" y2="60.9707">
		<stop  offset="0" style="stop-color:#67BA6D"/>
		<stop  offset="0.58" style="stop-color:#32B0AC"/>
	</linearGradient>
	<path class="st3" d="M115.4,63.6c0,0.7,0.1,1.7,0.1,2.2h-1.6c-0.1-0.3-0.1-0.9-0.1-1.4c-0.4,0.9-1.4,1.6-2.9,1.6
		c-2.4,0-3.1-1.6-3.1-3c0-1.5,1-3.1,4.5-3.1c0.5,0,1,0,1.4,0V59c0-0.9-0.3-1.8-1.8-1.8c-1.4,0-1.8,0.6-2,1.6h-1.7
		c0.1-1.6,1.1-3,3.8-3c2.1,0,3.5,0.8,3.5,3.1V63.6z M113.7,61.2c-0.4,0-0.9,0-1.5,0c-2.2,0-2.7,0.9-2.7,1.8c0,0.9,0.5,1.6,1.7,1.6
		c1.8,0,2.4-1.2,2.4-3.2V61.2z"/>
	<linearGradient id="SVGID_3_" gradientUnits="userSpaceOnUse" x1="118.0479" y1="60.8843" x2="248.96" y2="60.8843">
		<stop  offset="0" style="stop-color:#67BA6D"/>
		<stop  offset="0.58" style="stop-color:#32B0AC"/>
	</linearGradient>
	<path class="st4" d="M118,59.2c0-2,0-2.6,0-3.1h1.7c0,0.2,0.1,1.1,0.1,1.5c0.4-0.9,1.3-1.7,2.8-1.7c1.9,0,3.1,1.1,3.1,3.6v6.3h-1.8
		v-6c0-1.4-0.4-2.4-1.8-2.4c-1.6,0-2.3,1.2-2.3,3.2v5.3H118V59.2z"/>
	<linearGradient id="SVGID_4_" gradientUnits="userSpaceOnUse" x1="118.0479" y1="60.9759" x2="248.96" y2="60.9759">
		<stop  offset="0" style="stop-color:#67BA6D"/>
		<stop  offset="0.58" style="stop-color:#32B0AC"/>
	</linearGradient>
	<path class="st5" d="M135.9,62.7c-0.4,1.9-1.6,3.4-4,3.4c-2.8,0-4.2-1.8-4.2-5.1c0-2.9,1.5-5.1,4.3-5.1c2.7,0,3.7,1.9,3.9,3.5h-1.8
		c-0.2-1.1-0.7-2-2.1-2c-1.7,0-2.4,1.5-2.4,3.6c0,2.5,0.9,3.7,2.4,3.7c1.3,0,1.8-0.8,2.2-1.9H135.9z"/>
	<linearGradient id="SVGID_5_" gradientUnits="userSpaceOnUse" x1="118.0479" y1="60.9759" x2="248.9602" y2="60.9759">
		<stop  offset="0" style="stop-color:#67BA6D"/>
		<stop  offset="0.58" style="stop-color:#32B0AC"/>
	</linearGradient>
	<path class="st6" d="M139,61.3c0,1.8,0.7,3.2,2.4,3.2c1.5,0,2-1,2.1-1.5h1.8c-0.4,1.3-1.3,3-4,3c-3.1,0-4.2-2.4-4.2-5.1
		c0-2.4,1.2-5.1,4.2-5.1c3.1,0,4,2.4,4,4.7c0,0.1,0,0.7,0,0.8H139z M143.7,60.1c0-1.6-0.7-2.7-2.3-2.7c-1.8,0-2.3,1.6-2.4,2.7H143.7
		z"/>
	<linearGradient id="SVGID_6_" gradientUnits="userSpaceOnUse" x1="118.0479" y1="60.8931" x2="248.9601" y2="60.8931">
		<stop  offset="0" style="stop-color:#67BA6D"/>
		<stop  offset="0.58" style="stop-color:#32B0AC"/>
	</linearGradient>
	<path class="st7" d="M147.5,59.4c0-1.6,0-2.8,0-3.3h1.7c0,0.5,0,1.1,0,1.9c0.4-1.1,1.5-2.1,3.1-2.1v1.8c-2.2,0.1-3.1,1.2-3.1,3.4
		v4.7h-1.8V59.4z"/>
	<linearGradient id="SVGID_7_" gradientUnits="userSpaceOnUse" x1="118.0478" y1="59.2504" x2="248.9601" y2="59.2504">
		<stop  offset="0" style="stop-color:#67BA6D"/>
		<stop  offset="0.58" style="stop-color:#32B0AC"/>
	</linearGradient>
	<path class="st8" d="M154,52.6h7.9v1.6h-6.1v4.2h5.7v1.5h-5.7v5.9H154V52.6z"/>
	<linearGradient id="SVGID_8_" gradientUnits="userSpaceOnUse" x1="118.0479" y1="60.8931" x2="248.9602" y2="60.8931">
		<stop  offset="0" style="stop-color:#67BA6D"/>
		<stop  offset="0.58" style="stop-color:#32B0AC"/>
	</linearGradient>
	<path class="st9" d="M163.4,59.4c0-1.6,0-2.8,0-3.3h1.7c0,0.5,0,1.1,0,1.9c0.4-1.1,1.5-2.1,3.1-2.1v1.8c-2.2,0.1-3.1,1.2-3.1,3.4
		v4.7h-1.8V59.4z"/>
	<linearGradient id="SVGID_9_" gradientUnits="userSpaceOnUse" x1="118.048" y1="60.9759" x2="248.96" y2="60.9759">
		<stop  offset="0" style="stop-color:#67BA6D"/>
		<stop  offset="0.58" style="stop-color:#32B0AC"/>
	</linearGradient>
	<path class="st10" d="M170.8,61.3c0,1.8,0.7,3.2,2.4,3.2c1.5,0,2-1,2.1-1.5h1.8c-0.4,1.3-1.3,3-4,3c-3.1,0-4.2-2.4-4.2-5.1
		c0-2.4,1.2-5.1,4.2-5.1c3.1,0,4,2.4,4,4.7c0,0.1,0,0.7,0,0.8H170.8z M175.5,60.1c0-1.6-0.7-2.7-2.3-2.7c-1.8,0-2.3,1.6-2.4,2.7
		H175.5z"/>
	<linearGradient id="SVGID_10_" gradientUnits="userSpaceOnUse" x1="118.0478" y1="60.9759" x2="248.9601" y2="60.9759">
		<stop  offset="0" style="stop-color:#67BA6D"/>
		<stop  offset="0.58" style="stop-color:#32B0AC"/>
	</linearGradient>
	<path class="st11" d="M180.5,61.3c0,1.8,0.7,3.2,2.4,3.2c1.5,0,2-1,2.1-1.5h1.8c-0.4,1.3-1.3,3-4,3c-3.1,0-4.2-2.4-4.2-5.1
		c0-2.4,1.2-5.1,4.2-5.1c3.1,0,4,2.4,4,4.7c0,0.1,0,0.7,0,0.8H180.5z M185.2,60.1c0-1.6-0.7-2.7-2.3-2.7c-1.8,0-2.3,1.6-2.4,2.7
		H185.2z"/>
	<linearGradient id="SVGID_11_" gradientUnits="userSpaceOnUse" x1="118.0479" y1="59.2504" x2="248.9604" y2="59.2504">
		<stop  offset="0" style="stop-color:#67BA6D"/>
		<stop  offset="0.58" style="stop-color:#32B0AC"/>
	</linearGradient>
	<path class="st12" d="M193.7,52.6h4.7c2.5,0,3.9,1.3,3.9,3.3c0,1.7-1.1,2.5-1.8,2.7c0.9,0.3,2.3,1.2,2.3,3.3c0,2.5-1.9,3.9-4.5,3.9
		h-4.6V52.6z M198.1,58c1.8,0,2.5-0.7,2.5-2c0-1.2-0.8-2-2.4-2h-2.6v4H198.1z M195.5,64.4h2.6c1.6,0,2.8-0.8,2.8-2.5
		c0-1.5-1-2.4-2.9-2.4h-2.4V64.4z"/>
	<linearGradient id="SVGID_12_" gradientUnits="userSpaceOnUse" x1="118.0482" y1="58.8798" x2="248.9601" y2="58.8798">
		<stop  offset="0" style="stop-color:#67BA6D"/>
		<stop  offset="0.58" style="stop-color:#32B0AC"/>
	</linearGradient>
	<path class="st13" d="M204.8,51.9h1.8V54h-1.8V51.9z M204.8,56.1h1.8v9.8h-1.8V56.1z"/>
	<linearGradient id="SVGID_13_" gradientUnits="userSpaceOnUse" x1="118.0478" y1="60.9698" x2="248.9599" y2="60.9698">
		<stop  offset="0" style="stop-color:#67BA6D"/>
		<stop  offset="0.58" style="stop-color:#32B0AC"/>
	</linearGradient>
	<path class="st14" d="M217.3,60.8c0,2.8-1.3,5.2-4.4,5.2c-3.1,0-4.3-2.5-4.3-5.2c0-2.5,1.4-5,4.4-5C215.8,55.9,217.3,58,217.3,60.8
		z M210.4,60.8c0,2.2,0.9,3.7,2.6,3.7c1.7,0,2.5-1.5,2.5-3.7c0-2.1-0.8-3.5-2.6-3.5C211.3,57.4,210.4,58.8,210.4,60.8z"/>
	<linearGradient id="SVGID_14_" gradientUnits="userSpaceOnUse" x1="118.0478" y1="59.6375" x2="248.9598" y2="59.6375">
		<stop  offset="0" style="stop-color:#67BA6D"/>
		<stop  offset="0.58" style="stop-color:#32B0AC"/>
	</linearGradient>
	<path class="st15" d="M218.1,56.1h1.5v-2.8h1.8v2.8h1.9v1.4h-1.9v5.9c0,0.8,0.2,1.1,1,1.1c0.3,0,0.5,0,0.7-0.1v1.3
		c-0.4,0.1-1,0.2-1.3,0.2c-1.5,0-2.2-0.6-2.2-2.2v-6.2h-1.5V56.1z"/>
	<linearGradient id="SVGID_15_" gradientUnits="userSpaceOnUse" x1="118.0482" y1="60.9759" x2="248.9602" y2="60.9759">
		<stop  offset="0" style="stop-color:#67BA6D"/>
		<stop  offset="0.58" style="stop-color:#32B0AC"/>
	</linearGradient>
	<path class="st16" d="M226,61.3c0,1.8,0.7,3.2,2.4,3.2c1.5,0,2-1,2.1-1.5h1.8c-0.4,1.3-1.3,3-4,3c-3.1,0-4.2-2.4-4.2-5.1
		c0-2.4,1.2-5.1,4.2-5.1c3.1,0,4,2.4,4,4.7c0,0.1,0,0.7,0,0.8H226z M230.7,60.1c0-1.6-0.7-2.7-2.3-2.7c-1.8,0-2.3,1.6-2.4,2.7H230.7
		z"/>
	<linearGradient id="SVGID_16_" gradientUnits="userSpaceOnUse" x1="118.0475" y1="60.9759" x2="248.9601" y2="60.9759">
		<stop  offset="0" style="stop-color:#67BA6D"/>
		<stop  offset="0.58" style="stop-color:#32B0AC"/>
	</linearGradient>
	<path class="st17" d="M242.1,62.7c-0.4,1.9-1.6,3.4-4,3.4c-2.8,0-4.2-1.8-4.2-5.1c0-2.9,1.5-5.1,4.3-5.1c2.7,0,3.7,1.9,3.9,3.5
		h-1.8c-0.2-1.1-0.7-2-2.1-2c-1.7,0-2.4,1.5-2.4,3.6c0,2.5,0.9,3.7,2.4,3.7c1.3,0,1.8-0.8,2.2-1.9H242.1z"/>
	<linearGradient id="SVGID_17_" gradientUnits="userSpaceOnUse" x1="118.0478" y1="58.8798" x2="248.9602" y2="58.8798">
		<stop  offset="0" style="stop-color:#67BA6D"/>
		<stop  offset="0.58" style="stop-color:#32B0AC"/>
	</linearGradient>
	<path class="st18" d="M245.7,51.9v5.6c0.5-0.9,1.4-1.6,2.9-1.6c1.5,0,3.1,0.8,3.1,3.5v6.4h-1.8v-6.2c0-1.4-0.5-2.3-1.9-2.3
		c-1.5,0-2.3,1-2.3,2.9v5.5h-1.8v-14H245.7z"/>
</g>
<linearGradient id="SVGID_18_" gradientUnits="userSpaceOnUse" x1="89.8359" y1="59.6516" x2="93.5621" y2="59.6516">
	<stop  offset="0" style="stop-color:#67BA6D"/>
	<stop  offset="1" style="stop-color:#67BA6C"/>
</linearGradient>
<rect x="89.8" y="59" class="st19" width="3.7" height="1.2"/>
<rect x="254" y="59" class="st20" width="4" height="1.2"/>
</svg>
